HIERARCHY
ROOT Hips
{
	OFFSET 51.998402 -7.811119 56.112801
	CHANNELS 6 Xposition Yposition Zposition Xrotation Yrotation Zrotation
	JOINT spine
	{
		OFFSET 0.000000 -0.367607 6.392601
		CHANNELS 3 Xrotation Yrotation Zrotation
		JOINT spine1
		{
			OFFSET 0.000000 -0.000001 9.176109
			CHANNELS 3 Xrotation Yrotation Zrotation
			JOINT spine2
			{
				OFFSET 0.000000 -0.000002 8.792381
				CHANNELS 3 Xrotation Yrotation Zrotation
				JOINT Neck
				{
					OFFSET 0.000000 -1.076243 22.573700
					CHANNELS 3 Xrotation Yrotation Zrotation
					JOINT Head
					{
						OFFSET 0.000000 -0.000001 6.820107
						CHANNELS 3 Xrotation Yrotation Zrotation
						End Site
						{
							OFFSET 0.000000 5.444268 16.508499
						}
					}
				}
				JOINT RightShoulder
				{
					OFFSET -3.702209 0.515507 9.495087
					CHANNELS 3 Xrotation Yrotation Zrotation
					JOINT RightArm
					{
						OFFSET 0.000000 -0.000002 12.453697
						CHANNELS 3 Xrotation Yrotation Zrotation
						JOINT RightArmRoll
						{
							OFFSET 0.000000 -0.000001 6.286858
							CHANNELS 3 Xrotation Yrotation Zrotation
							JOINT RightForeArm
							{
								OFFSET 0.000000 -0.000003 18.311401
								CHANNELS 3 Xrotation Yrotation Zrotation
								JOINT RightForeArmRoll
								{
									OFFSET 0.000000 -0.000001 7.054825
									CHANNELS 3 Xrotation Yrotation Zrotation
									JOINT RightHand
									{
										OFFSET 0.000000 -0.000002 14.157501
										CHANNELS 3 Xrotation Yrotation Zrotation
										End Site
										{
											OFFSET 0.000000 0.000000 0.100006
										}
									}
								}
							}
						}
					}
				}
				JOINT LeftShoulder
				{
					OFFSET 3.702209 0.515507 9.495087
					CHANNELS 3 Xrotation Yrotation Zrotation
					JOINT LeftArm
					{
						OFFSET 0.000000 -0.000002 12.453697
						CHANNELS 3 Xrotation Yrotation Zrotation
						JOINT LeftArmRoll
						{
							OFFSET 0.000000 -0.000001 6.286858
							CHANNELS 3 Xrotation Yrotation Zrotation
							JOINT LeftForeArm
							{
								OFFSET 0.000000 -0.000003 18.311401
								CHANNELS 3 Xrotation Yrotation Zrotation
								JOINT LeftForeArmRoll
								{
									OFFSET 0.000000 -0.000001 7.054825
									CHANNELS 3 Xrotation Yrotation Zrotation
									JOINT LeftHand
									{
										OFFSET 0.000000 -0.000002 14.157501
										CHANNELS 3 Xrotation Yrotation Zrotation
										End Site
										{
											OFFSET 0.000000 0.000000 0.100006
										}
									}
								}
							}
						}
					}
				}
			}
		}
	}
	JOINT RightUpLeg
	{
		OFFSET -5.666161 0.871610 -1.039028
		CHANNELS 3 Xrotation Yrotation Zrotation
		JOINT RightUpLegRoll
		{
			OFFSET 0.000000 -0.000002 16.600498
			CHANNELS 3 Xrotation Yrotation Zrotation
			JOINT RightLeg
			{
				OFFSET 0.000000 0.000003 -20.557198
				CHANNELS 3 Xrotation Yrotation Zrotation
				JOINT RightLegRoll
				{
					OFFSET 0.000000 -0.000004 20.624397
					CHANNELS 3 Xrotation Yrotation Zrotation
					JOINT RightFoot
					{
						OFFSET 0.000000 -0.000002 17.166397
						CHANNELS 3 Xrotation Yrotation Zrotation
						JOINT RightToeBase
						{
							OFFSET 0.000000 -0.000002 14.350197
							CHANNELS 3 Xrotation Yrotation Zrotation
							End Site
							{
								OFFSET 0.006081 0.801059 6.949707
							}
						}
					}
				}
			}
		}
	}
	JOINT LeftUpLeg
	{
		OFFSET 5.666161 0.871610 -1.039028
		CHANNELS 3 Xrotation Yrotation Zrotation
		JOINT LeftUpLegRoll
		{
			OFFSET 0.000000 -0.000002 16.600597
			CHANNELS 3 Xrotation Yrotation Zrotation
			JOINT LeftLeg
			{
				OFFSET 0.000000 -0.000004 20.557098
				CHANNELS 3 Xrotation Yrotation Zrotation
				JOINT LeftLegRoll
				{
					OFFSET 0.000000 -0.000003 20.815102
					CHANNELS 3 Xrotation Yrotation Zrotation
					JOINT LeftFoot
					{
						OFFSET 0.000000 -0.000002 16.975708
						CHANNELS 3 Xrotation Yrotation Zrotation
						JOINT LeftToeBase
						{
							OFFSET 0.000000 -0.000002 14.350204
							CHANNELS 3 Xrotation Yrotation Zrotation
							End Site
							{
								OFFSET -0.027260 0.801060 6.949707
							}
						}
					}
				}
			}
		}
	}
}
MOTION
Frames: 12
Frame Time: 0.041667
53.941704 -46.306618 86.036995 -1.848762 0.682243 1.629312 -1.822951 0.193092 -0.236978 0.367551 0.394644 -0.472740 2.012616 0.388952 -0.477434 8.990908 -1.200175 1.544669 2.454074 0.071404 1.710970 -2.894140 -61.346143 -3.642576 -42.246810 -116.023481 -39.764033 -0.000000 0.000000 -0.000003 6.981740 -16.071701 0.838133 -0.000005 -0.000005 -3.000001 -5.000191 -7.998843 0.000176 -9.582059 54.712103 11.030791 -35.466553 118.400633 37.728701 -0.000000 0.000002 0.000003 6.555960 13.896909 -0.417556 0.000006 -0.000001 3.000001 -5.000211 7.998742 -0.000184 0.648959 -177.128184 0.437360 -179.999991 0.000005 -1.051994 174.037482 -3.622352 -0.594079 0.000002 -0.000003 0.051560 68.359737 6.867648 2.224193 25.456940 -7.347123 0.000003 1.717745 176.377628 1.613910 -0.000005 -0.000005 -1.122610 -5.140134 0.443796 0.476054 -0.000004 -0.000001 -0.062415 69.535294 -6.895928 -2.067150 25.456955 7.355613 0.000000 
53.947399 -46.312317 86.053085 -1.850822 0.681628 1.632776 -1.822548 0.193680 -0.237703 0.367649 0.394259 -0.473256 2.012716 0.388561 -0.477944 8.995387 -1.202333 1.544577 2.452376 0.074829 1.711105 -2.894073 -61.345645 -3.642475 -42.233409 -116.007608 -39.765730 0.000001 -0.000001 -0.000003 7.032783 -16.075398 0.845668 -0.000005 -0.000004 -3.000000 -5.000189 -7.998842 0.000175 -9.569653 54.710782 11.015669 -35.458186 118.395879 37.714344 -0.000001 0.000002 0.000003 6.562363 13.892658 -0.417688 0.000004 -0.000001 3.000002 -5.000206 7.998741 -0.000184 0.654407 -177.130192 0.431782 -179.999991 0.000006 -1.051994 174.039668 -3.614404 -0.593111 0.000002 -0.000003 0.051501 68.361314 6.867657 2.224896 25.456941 -7.347124 0.000003 1.747895 176.374677 1.583764 -0.000005 -0.000004 -1.121500 -5.103463 0.485857 0.474790 -0.000004 -0.000001 -0.060066 69.501129 -6.895946 -2.071279 25.456957 7.355612 -0.000000 
53.950104 -46.313721 86.039581 -1.852982 0.681033 1.636353 -1.822140 0.194298 -0.238452 0.367734 0.393840 -0.473740 2.012796 0.388135 -0.478423 9.000115 -1.204372 1.544431 2.450621 0.078239 1.711182 -2.893985 -61.345146 -3.642346 -42.217915 -115.992199 -39.766328 0.000000 -0.000001 -0.000003 7.086151 -16.079401 0.853571 -0.000005 -0.000005 -3.000001 -5.000185 -7.998844 0.000176 -9.556528 54.709815 10.999698 -35.449812 118.391125 37.699881 0.000000 0.000001 0.000003 6.569095 13.888402 -0.417839 0.000006 -0.000001 3.000001 -5.000207 7.998741 -0.000183 0.660269 -177.134194 0.424757 -179.999991 0.000005 -1.051994 174.042222 -3.603483 -0.593805 0.000002 -0.000003 0.051414 68.363234 6.867728 2.225392 25.456945 -7.347124 0.000003 1.779182 176.370743 1.552512 -0.000005 -0.000005 -1.120350 -5.065407 0.529387 0.473420 -0.000004 -0.000001 -0.057634 69.465694 -6.895947 -2.075683 25.456955 7.355613 0.000001 
53.933399 -46.306721 86.052582 -1.855221 0.680454 1.640010 -1.821734 0.194938 -0.239219 0.367809 0.393397 -0.474202 2.012876 0.387688 -0.478880 9.005012 -1.206321 1.544236 2.448842 0.081639 1.711229 -2.893876 -61.344641 -3.642209 -42.201881 -115.976598 -39.767205 -0.000000 -0.000001 -0.000003 7.141117 -16.083736 0.861767 -0.000008 -0.000005 -3.000000 -5.000187 -7.998842 0.000177 -9.542894 54.708982 10.983119 -35.441097 118.386248 37.685019 -0.000000 0.000002 0.000003 6.576054 13.884138 -0.418024 0.000008 -0.000001 3.000001 -5.000207 7.998741 -0.000184 0.666424 -177.138197 0.416738 -179.999991 0.000005 -1.053005 174.045064 -3.592565 -0.593485 0.000002 -0.000003 0.051307 68.365358 6.867778 2.225968 25.456943 -7.347124 0.000004 1.811280 176.367820 1.520526 -0.000005 -0.000004 -1.119160 -5.026362 0.573944 0.471953 -0.000004 -0.000001 -0.055143 69.429426 -6.895979 -2.080146 25.456955 7.355613 -0.000000 
53.936298 -46.311424 86.038086 -1.857510 0.679882 1.643699 -1.821311 0.195590 -0.239994 0.367881 0.392941 -0.474652 2.012946 0.387226 -0.479325 9.009999 -1.208220 1.544024 2.447028 0.085033 1.711247 -2.893768 -61.344149 -3.642052 -42.185482 -115.960875 -39.768172 -0.000002 -0.000001 -0.000003 7.197016 -16.088222 0.870112 -0.000009 -0.000005 -3.000000 -5.000191 -7.998841 0.000176 -9.528960 54.708278 10.966179 -35.432194 118.381330 37.669962 -0.000000 0.000001 0.000003 6.583140 13.879773 -0.418198 0.000005 -0.000001 3.000001 -5.000207 7.998741 -0.000184 0.672753 -177.143196 0.408136 -179.999991 0.000005 -1.053005 174.048042 -3.579648 -0.592950 0.000002 -0.000003 0.051188 68.367680 6.867806 2.226629 25.456945 -7.347125 0.000003 1.843846 176.363886 1.488064 -0.000005 -0.000004 -1.117960 -4.986762 0.619086 0.470403 -0.000004 -0.000001 -0.052618 69.392728 -6.895960 -2.084728 25.456955 7.355614 -0.000001 
53.945202 -46.314915 86.048096 -1.859812 0.679312 1.647408 -1.820903 0.196246 -0.240773 0.367951 0.392481 -0.475099 2.013016 0.386761 -0.479766 9.015017 -1.210110 1.543802 2.445222 0.088425 1.711264 -2.893638 -61.343650 -3.641886 -42.169055 -115.945152 -39.769227 -0.000002 -0.000002 -0.000003 7.253144 -16.092687 0.878512 -0.000007 -0.000005 -3.000001 -5.000190 -7.998843 0.000176 -9.514938 54.707572 10.949156 -35.423441 118.376467 37.655028 0.000000 0.000001 0.000003 6.590266 13.875504 -0.418389 0.000004 -0.000001 3.000001 -5.000209 7.998741 -0.000184 0.679120 -177.147199 0.399403 -179.999991 0.000005 -1.053005 174.051088 -3.566733 -0.592426 0.000002 -0.000003 0.051066 68.369907 6.867864 2.227202 25.456940 -7.347124 0.000003 1.876516 176.360949 1.455534 -0.000005 -0.000004 -1.116760 -4.947033 0.664373 0.468785 -0.000004 -0.000001 -0.050084 69.355831 -6.895997 -2.089229 25.456953 7.355613 0.000000 
53.951904 -46.317917 85.914185 -1.862077 0.678737 1.651096 -1.820481 0.196895 -0.241547 0.368023 0.392028 -0.475552 2.013086 0.386302 -0.480213 9.019985 -1.212029 1.543595 2.443425 0.091820 1.711282 -2.893528 -61.343145 -3.641738 -42.152612 -115.929443 -39.770043 0.000000 -0.000001 -0.000003 7.308817 -16.097151 0.886846 -0.000004 -0.000004 -3.000001 -5.000192 -7.998844 0.000176 -9.501075 54.706865 10.932308 -35.414541 118.371550 37.639984 0.000002 0.000002 0.000003 6.597327 13.871237 -0.418575 0.000006 -0.000001 3.000001 -5.000208 7.998741 -0.000183 0.685406 -177.152199 0.390942 -179.999991 0.000005 -1.053005 174.054025 -3.554821 -0.592000 0.000002 -0.000003 0.050951 68.372133 6.867920 2.227774 25.456941 -7.347124 0.000003 1.908972 176.357028 1.423171 -0.000005 -0.000004 -1.115560 -4.907577 0.709364 0.467117 -0.000004 -0.000002 -0.047567 69.319248 -6.895980 -2.093803 25.456952 7.355612 0.000000 
53.979900 -46.300823 85.926590 -1.864299 0.678151 1.654733 -1.820071 0.197528 -0.242308 0.368102 0.391592 -0.476021 2.013165 0.385861 -0.480677 9.024831 -1.214007 1.543414 2.441643 0.095223 1.711340 -2.893441 -61.342653 -3.641609 -42.136683 -115.913925 -39.770757 -0.000000 -0.000001 -0.000003 7.363339 -16.101333 0.894983 -0.000008 -0.000004 -3.000002 -5.000190 -7.998843 0.000176 -9.487598 54.706018 10.915915 -35.407052 118.365922 37.626508 0.000002 0.000001 0.000003 6.604221 13.866978 -0.418740 0.000005 -0.000001 3.000001 -5.000207 7.998741 -0.000184 0.691481 -177.156215 0.383203 -179.999991 0.000005 -1.053005 174.056784 -3.543900 -0.591690 0.000002 -0.000003 0.050849 68.374237 6.867934 2.228447 25.456938 -7.347124 0.000003 1.940843 176.354091 1.391385 -0.000005 -0.000004 -1.114390 -4.868823 0.753619 0.465418 -0.000005 -0.000001 -0.045093 69.283212 -6.895986 -2.098249 25.456952 7.355611 0.000001 
53.936901 -46.294716 86.202286 -1.866430 0.677549 1.658279 -1.819662 0.198137 -0.243050 0.368191 0.391183 -0.476514 2.013255 0.385446 -0.481165 9.029490 -1.216075 1.543284 2.439914 0.098637 1.711437 -2.893354 -61.342154 -3.641488 -42.121278 -115.898584 -39.771088 0.000000 -0.000001 -0.000003 7.416018 -16.105274 0.902841 -0.000006 -0.000004 -3.000001 -5.000191 -7.998842 0.000177 -9.474697 54.704928 10.900205 -35.397421 118.361919 37.610696 -0.000000 0.000002 0.000003 6.610847 13.862723 -0.418880 0.000008 -0.000001 3.000001 -5.000210 7.998741 -0.000184 0.697218 -177.159220 0.376613 -179.999991 0.000005 -1.053005 174.059229 -3.533971 -0.591503 0.000002 -0.000003 0.050770 68.376047 6.867995 2.228943 25.456941 -7.347123 0.000003 1.971792 176.351154 1.360453 -0.000005 -0.000004 -1.113250 -4.831188 0.796697 0.463712 -0.000004 -0.000001 -0.042686 69.248132 -6.896003 -2.102535 25.456952 7.355613 0.000000 
53.905403 -46.308117 86.226990 -1.868439 0.676924 1.661692 -1.819261 0.198712 -0.243765 0.368293 0.390811 -0.477040 2.013355 0.385068 -0.481688 9.033869 -1.218283 1.543230 2.438233 0.102067 1.711594 -2.893287 -61.341656 -3.641389 -42.108318 -115.882875 -39.772704 -0.000000 -0.000001 -0.000003 7.466157 -16.108788 0.910281 -0.000007 -0.000004 -3.000001 -5.000187 -7.998842 0.000175 -9.462579 54.703463 10.885437 -35.389218 118.357220 37.596527 -0.000002 0.000000 0.000004 6.617113 13.858477 -0.418983 0.000006 -0.000001 3.000001 -5.000207 7.998741 -0.000184 0.702494 -177.161214 0.371599 -179.999991 0.000005 -1.053005 174.061237 -3.526022 -0.591550 0.000002 -0.000003 0.050723 68.377516 6.867996 2.229654 25.456940 -7.347124 0.000003 2.001479 176.348231 1.330720 -0.000005 -0.000004 -1.112150 -4.795104 0.838157 0.462024 -0.000004 -0.000001 -0.040371 69.214432 -6.895987 -2.106632 25.456950 7.355613 0.000001 
53.957699 -46.313023 85.930786 -1.870299 0.676268 1.664963 -1.818872 0.199243 -0.244446 0.368413 0.390486 -0.477611 2.013475 0.384736 -0.482254 9.037917 -1.220660 1.543246 2.436632 0.105519 1.711830 -2.893240 -61.341157 -3.641316 -42.095013 -115.868299 -39.772195 -0.000001 -0.000001 -0.000003 7.513068 -16.111713 0.917184 -0.000008 -0.000005 -3.000001 -5.000190 -7.998844 0.000176 -9.451510 54.701629 10.871896 -35.381360 118.352616 37.582819 0.000001 0.000001 0.000003 6.622929 13.854244 -0.419047 0.000005 -0.000001 3.000001 -5.000209 7.998741 -0.000184 0.707180 -177.162212 0.368588 -179.999991 0.000005 -1.053005 174.062699 -3.521058 -0.591953 0.000002 -0.000003 0.050716 68.378574 6.868002 2.230389 25.456943 -7.347123 0.000003 2.029561 176.345280 1.302505 -0.000005 -0.000004 -1.111120 -4.760969 0.877558 0.460382 -0.000004 -0.000001 -0.038175 69.182412 -6.895955 -2.110619 25.456953 7.355613 -0.000000 
53.958801 -46.329720 85.937088 -1.871970 0.675576 1.668040 -1.818493 0.199722 -0.245085 0.368554 0.390219 -0.478234 2.013615 0.384463 -0.482874 9.041549 -1.223235 1.543375 2.435114 0.108996 1.712145 -2.893246 -61.340754 -3.641290 -42.084504 -115.853491 -39.772642 0.000001 -0.000000 -0.000003 7.556050 -16.113873 0.923419 -0.000007 -0.000004 -3.000001 -5.000189 -7.998842 0.000176 -9.441709 54.699382 10.859870 -35.372962 118.348996 37.568561 0.000002 0.000002 0.000003 6.628184 13.850129 -0.419066 0.000004 -0.000001 3.000001 -5.000209 7.998741 -0.000184 0.711152 -177.162225 0.368007 -179.999991 0.000005 -1.053005 174.063505 -3.518074 -0.591594 0.000002 -0.000003 0.050758 68.379086 6.867968 2.231150 25.456941 -7.347125 0.000003 2.055678 176.343354 1.276159 -0.000005 -0.000004 -1.110150 -4.729214 0.914462 0.458814 -0.000004 -0.000001 -0.036122 69.152407 -6.895966 -2.114188 25.456955 7.355613 0.000000 
